<svg enable-background="new 0 0 40 40" viewBox="0 0 40 40" xmlns="http://www.w3.org/2000/svg"><path clip-rule="evenodd" d="m19.6 2.5c-10.1 0-18.3 8.2-18.3 18.4 0 8.1 5.3 15 12.5 17.4.9.2 1.3-.4 1.3-.9 0-.4 0-1.6 0-3.1-5.1 1.1-6.2-2.5-6.2-2.5-.8-2.1-2-2.7-2-2.7-1.8-1.1 0-1.1 0-1.1 1.8.1 2.8 1.9 2.8 1.9 1.6 2.8 4.3 2 5.3 1.5.2-1.2.6-2 1.2-2.5-4.1-.5-8.4-2-8.4-9.1 0-2 .7-3.6 1.9-4.9-.1-.4-.7-2.2.3-4.8 0 0 1.5-.5 5 1.9 1.5-.4 3-.6 4.6-.6s3.1.2 4.6.6c3.5-2.4 5-1.9 5-1.9 1 2.5.4 4.4.2 4.9 1.2 1.3 1.9 2.9 1.9 4.9 0 7-4.3 8.6-8.4 9 .7.6 1.2 1.7 1.2 3.4v5c0 .5.3 1.1 1.3.9 7.3-2.4 12.5-9.3 12.5-17.4 0-10.1-8.2-18.3-18.3-18.3z" fill="#221e1b" fill-rule="evenodd"/></svg>