<svg enable-background="new 0 0 50 50" viewBox="0 0 50 50" xmlns="http://www.w3.org/2000/svg"><path d="m28.7 9.1 2.6-4.4s-2.6-1.2-2.8 1.4c-.1 1.1-.7 1.5-1.3 1.5-.7 0-1.2-.6-1.2-1.2 0-.7.5-1.2 1.2-1.2h.3c.4-1.2-.8-1.5-1.4-1.2.1-.7-.3-1.3-.9-1.6-.6.2-1 .9-.9 1.6-.7-.4-1.8 0-1.4 1.2h.3c.7 0 1.2.6 1.2 1.2 0 .7-.5 1.2-1.2 1.2-.6 0-1.3-.4-1.3-1.5-.2-2.6-2.9-1.6-2.9-1.6l2.7 4.6zm16.3 14.7c4.1-.5 4-3.8 4-3.8-5.1.9-8-2-8-2s3.2 1.3 5.7 0 2.2-4.1 2.2-4.1c-5.9 1.9-8-.2-8-.2s2.4.5 4.4-.7c2.8-1.7 1.5-4.1 1.5-4.1-4.4 2.1-6.5 1-6.5 1s2.2 0 3.5-2.5c1-2-.6-3.5-.6-3.5-2.2 3.4-5.8 2.9-8.2 4.3-1.6.9-.1 2.6-.1 2.6 1.6-.6 3 1.2 3 3.8 0 3.7-3 5.8-6.3 5.8s-4.7-1.4-4.7-4.8c0-1.4.3-2 1.4-2 .6 0 1.1.3 1.5.8.4-.6.6-1.4.6-2.1 0-1.6-1.2-2-2.5-2h-6.7c0 .9.3 1.9 1.2 2.2 0 0-.3 2.6-.7 5.4-.2 1.8-1.7 2.5-3.3 2.5-3 0-6.3-1.9-6.3-5.8 0-2.2 1.2-4.4 3-3.8.5-.6 1-1.8 0-2.6-1.8-1.2-6.2-.9-8.3-4.2 0 0-1.6 1.5-.6 3.5 1.2 2.4 3.4 2.5 3.4 2.5s-2 1.1-6.5-1c0 0-1.2 2.5 1.5 4.1 2 1.2 4.4.7 4.4.7s-2.1 2.1-8 .2c0 0-.3 2.8 2.2 4.1 2.6 1.3 5.8-.1 5.8-.1s-2.9 2.9-8 2c0 0 0 3.3 4 3.8 3.2.4 5.9-1.9 5.9-1.9s-.8 3.1-8.3 4.2c0 0 1.9 3.3 6.4 2.1 3-.8 4.9-3.5 4.9-3.5s-1.2 3.9-7.6 6.3c0 0 2 2.2 6.3.5 3.6-1.5 5.1-5.1 5.1-5.1s-.5 3.3-3.7 6.6c.6.1 1.2.1 1.8-.1 3-1.2 4.8-3.2 5.3-6.2 0 0 .9.8.6 2.5-.3 2.3-4.1 4.9-4.1 4.9l.5.8c-.9.6-2.4 1.4-2.9 1.7-1.1-.7-2.5-1.5-2.8-1.7-1-.6-2.9-.5-3.2 1.8.9-1 1.7-.9 2.7-.4.2.1 1 .6 1.8 1.1-.5.3-.9.5-.9.5-1 .6-1.9 2.3.1 3.6-.5-1.3 0-1.9 1-2.6.1-.1.6-.4 1.2-.8.4.3 1 .7 1.1.7.9.7 1.4 1.3.9 2.6 2-1.3 1.2-3 .2-3.6 0 0-.5-.3-.8-.5.4-.2 1.5-.9 2.3-1.4l.5.8 3.3-2c.1.4.1.8 0 1.3-.3 2.4-1.6 4.6-4.6 6.6.4 1 1.3 1.7 2.4 1.6 1.5 0 2.5-1.7 3.1-3.2-.5 2.7-.5 4.7 1.5 6.5 1.9-1.7 2-3.8 1.4-6.4.6 1.5 1.6 3.2 3.1 3.2 1.1.1 2.1-.6 2.4-1.6-3-2-4.3-4.2-4.6-6.6 0-.4 0-.8 0-1.3l3.3 2 .4-.8c.8.5 1.9 1.2 2.3 1.4-.3.2-.7.5-.8.5-1 .6-1.8 2.4.2 3.6-.5-1.3 0-1.9.9-2.6.1-.1.7-.5 1.1-.7.7.4 1.2.7 1.2.8.9.7 1.4 1.3 1 2.6 1.9-1.3 1.1-3.1.1-3.6-.1 0-.4-.2-.9-.5.8-.5 1.6-1 1.8-1.1 1-.5 1.8-.7 2.7.4-.2-2.3-2.2-2.4-3.2-1.8-.3.2-1.7 1-2.8 1.7-.5-.3-2-1.1-2.9-1.7l.5-.8s-3.8-2.6-4.1-4.9c-.2-1.7.6-2.5.6-2.5.4 2.8 2.3 5.1 5.3 6.2.6.2 1.2.2 1.7.1-3.1-3.3-3.6-6.6-3.6-6.6s1.5 3.6 5.1 5.1c4.3 1.8 6.3-.5 6.3-.5-6.4-2.4-7.6-6.3-7.6-6.3s1.8 2.7 4.9 3.5c4.6 1.2 6.4-2.1 6.4-2.1-7.5-1-8.3-4.2-8.3-4.2s2.9 2.2 6.1 1.8z"/></svg>