<svg enable-background="new 0 0 270 270" viewBox="0 0 270 270" xmlns="http://www.w3.org/2000/svg"><path d="m64.3 167.2c0 14.1-11.5 25.6-25.6 25.6s-25.7-11.5-25.7-25.6 11.5-25.6 25.6-25.6h25.6v25.6z" fill="#e01e5a"/><path d="m77.2 167.2c0-14.1 11.5-25.6 25.6-25.6s25.6 11.5 25.6 25.6v64.2c0 14.1-11.5 25.6-25.6 25.6s-25.6-11.5-25.6-25.6z" fill="#e01e5a"/><path d="m102.8 64.3c-14.1 0-25.6-11.5-25.6-25.6s11.5-25.7 25.6-25.7 25.6 11.5 25.6 25.6v25.6h-25.6z" fill="#36c5f0"/><path d="m102.8 77.2c14.1 0 25.6 11.5 25.6 25.6s-11.5 25.6-25.6 25.6h-64.2c-14.1 0-25.6-11.5-25.6-25.6s11.5-25.6 25.6-25.6z" fill="#36c5f0"/><path d="m205.7 102.8c0-14.1 11.5-25.6 25.6-25.6s25.6 11.5 25.6 25.6-11.5 25.6-25.6 25.6h-25.6z" fill="#2eb67d"/><path d="m192.8 102.8c0 14.1-11.5 25.6-25.6 25.6s-25.6-11.5-25.6-25.6v-64.2c0-14.1 11.5-25.6 25.6-25.6s25.6 11.5 25.6 25.6z" fill="#2eb67d"/><g fill="#ecb22e"><path d="m167.2 205.7c14.1 0 25.6 11.5 25.6 25.6s-11.5 25.6-25.6 25.6-25.6-11.5-25.6-25.6v-25.6z"/><path d="m167.2 192.8c-14.1 0-25.6-11.5-25.6-25.6s11.5-25.6 25.6-25.6h64.2c14.1 0 25.6 11.5 25.6 25.6s-11.5 25.6-25.6 25.6z"/></g></svg>