<svg enable-background="new 0 0 512 512" viewBox="0 0 512 512" xmlns="http://www.w3.org/2000/svg"><path d="m186.1 343.3c-9.6 9.6-9.6 25.3 0 34.9s25.3 9.6 34.9 0l157.2-157.2c19.3-19.3 50.6-19.3 69.9 0s19.3 50.6 0 69.9l-154.2 154.2c19.3 19.3 50.5 19.3 69.8 0l119.2-119.2c38.6-38.6 38.6-101.1 0-139.7s-101.1-38.6-139.7 0zm244.5-104.8c-9.6-9.6-25.3-9.6-34.9 0l-157.2 157.2c-19.3 19.3-50.5 19.3-69.8 0h-.1c-9.6-9.6-25.3-9.6-34.9 0-9.7 9.6-9.7 25.3 0 34.9 38.6 38.6 101.1 38.6 139.7 0l157.2-157.2c9.7-9.6 9.7-25.2 0-34.9zm-261.9 87.4 157.2-157.2c9.6-9.6 9.6-25.3 0-34.9s-25.3-9.6-34.9 0l-157.3 157.1c-19.3 19.3-50.6 19.3-69.8 0-19.3-19.3-19.3-50.5 0-69.8l154.1-154.2c-19.3-19.3-50.6-19.3-69.8 0l-119.3 119.2c-38.6 38.6-38.6 101.1 0 139.7s101.2 38.6 139.8.1zm-87.4-52.4c9.6 9.6 25.3 9.6 34.9 0l157.2-157.2c19.3-19.3 50.5-19.3 69.8 0 9.6 9.7 25.3 9.7 34.9 0s9.6-25.3 0-34.9c-38.6-38.6-101.1-38.6-139.7 0l-157.1 157.1c-9.6 9.7-9.6 25.3 0 35z" fill="#fff"/></svg>