<svg enable-background="new 0 0 122.5 122.5" viewBox="0 0 122.5 122.5" xmlns="http://www.w3.org/2000/svg"><g fill="#fff"><path d="m8.7 61.3c0 20.8 12.1 38.8 29.6 47.3l-25-68.7c-3 6.5-4.6 13.7-4.6 21.4z"/><path d="m96.7 58.6c0-6.5-2.3-11-4.3-14.5-2.7-4.3-5.2-8-5.2-12.3 0-4.8 3.7-9.3 8.8-9.3h.7c-9.3-8.6-21.8-13.8-35.4-13.8-18.4 0-34.5 9.4-43.9 23.7 1.2 0 2.4.1 3.4.1 5.5 0 14-.7 14-.7 2.8-.2 3.2 4 .3 4.3 0 0-2.8.3-6 .5l19.1 56.9 11.5-34.5-8.2-22.4c-2.8-.2-5.5-.5-5.5-.5-2.8-.2-2.5-4.5.3-4.3 0 0 8.7.7 13.8.7 5.5 0 14-.7 14-.7 2.8-.2 3.2 4 .3 4.3 0 0-2.9.3-6 .5l19 56.5 5.2-17.5c2.4-7.3 4.1-12.5 4.1-17z"/><path d="m62.2 65.9-15.8 45.8c4.7 1.4 9.7 2.1 14.8 2.1 6.1 0 12-1.1 17.5-3-.1-.2-.3-.5-.4-.7z"/><path d="m107.4 36c.2 1.7.4 3.5.4 5.4 0 5.3-1 11.3-4 18.8l-16.1 46.4c15.6-9.1 26.1-26 26.1-45.4 0-9.1-2.3-17.7-6.4-25.2z"/><path d="m61.3 0c-33.8 0-61.3 27.5-61.3 61.3s27.5 61.3 61.3 61.3 61.3-27.5 61.3-61.3c-.1-33.8-27.6-61.3-61.3-61.3zm0 119.7c-32.3 0-58.5-26.2-58.5-58.4 0-32.3 26.2-58.5 58.5-58.5 32.2 0 58.5 26.2 58.5 58.5-.1 32.2-26.3 58.4-58.5 58.4z"/></g></svg>