<svg enable-background="new 0 0 28.2 28.2" viewBox="0 0 28.2 28.2" xmlns="http://www.w3.org/2000/svg"><g fill="#fff"><path d="m2.4 23.6v-17.4c0-.2 0-.2.1-.2h.9 1.3 1.5 1.5c1.2 0 2.4.1 3.5.5.9.3 1.6.8 2.3 1.4.5.5 1 1.2 1.2 1.9.3.7.4 1.4.4 2.2.1 1.3-.3 2.5-1 3.6-.7.9-1.6 1.7-2.7 2.1-1.2.4-2.5.7-3.8.6-.4 0-.7 0-.8 0-.2 0-.4 0-.7 0v5.4c0 .1-.1.2-.2.2 0 0 0 0-.1 0h-3.2c-.2-.1-.2-.2-.2-.3zm3.6-14.4v5.6h.7.9c.7 0 1.3-.1 1.9-.3.5-.2 1-.5 1.4-.9.4-.5.6-1.1.5-1.7 0-.5-.1-1-.4-1.5-.3-.4-.7-.8-1.2-1-.6-.2-1.3-.4-2-.3-.4 0-.8 0-1.2 0-.2.1-.5.1-.6.1z"></path><path d="m19.3 13.5-1.9-.1c-.1 0-.2-.1-.2-.2v-2.4c0-.1.1-.2.1-.2h1.9v-.1c0-.8 0-1.6.1-2.4.1-.5.2-.9.4-1.4.4-.7.9-1.4 1.6-1.8.8-.5 1.7-.8 2.7-.7h.8c.3 0 .5.1.8.1.1 0 .2.1.2.3v2.7c0 .1-.1.2-.2.1-.1 0-.4 0-.6 0h-.4c-.4 0-.7.1-1.1.2-.3.1-.4.4-.5.6-.1.4-.2.8-.2 1.2v1.1h2.7c.1 0 .2 0 .2.1v.2 2.4c0 .1-.1.2-.2.2h-2.7v10.1.2c0 .1-.1.1-.2.1h-3.1c-.1 0-.2-.1-.2-.2z"></path></g></svg>