<svg enable-background="new 0 0 532 532" viewBox="0 0 532 532" xmlns="http://www.w3.org/2000/svg"><path d="m266 0c-146.7 0-266 119.3-266 266s119.3 266 266 266 266-119.3 266-266-119.3-266-266-266zm109.2 346.6c7.8 7.8 7.8 20.7 0 29.1-3.9 3.9-9.5 6.2-14.6 6.2s-10.6-2.2-14.6-6.2l-80-80.6-80.6 80.1c-3.9 3.9-9.5 6.2-14.6 6.2-5 0-10.6-2.2-14.6-6.2-7.8-7.8-7.8-20.7 0-29.1l80.6-80.1-80.1-80.6c-7.8-7.8-7.8-20.7 0-29.1 7.8-7.8 20.7-7.8 29.1 0l80.1 80.6 80.6-80.6c7.8-7.8 20.7-7.8 29.1 0 7.8 7.8 7.8 20.7 0 29.1l-80.5 80.6z"></path></svg>