<svg enable-background="new 0 0 50 50" viewBox="0 0 50 50" xmlns="http://www.w3.org/2000/svg"><path d="m43.9 6.8c-.1-.1-.3-.1-.4 0l-12.1 5.8-25.4-12.1c-.1 0-.3 0-.4 0 0 0-.1.1-.1.3v30.1c0 .1.1.3.3.4l13.4 5.5h.1v11.9c0 .1.1.3.1.3h.3.1l24.2-11.6c.1-.1.3-.3.3-.4v-29.8c-.2-.1-.2-.2-.4-.4zm-37.6 23.8v-29.2l24.3 11.7-7.2 3.5-.1-.1-11.3-5.1c-.1-.1-.4 0-.5.1s0 .4.1.5l11 5-3.1 1.5c-.1.1-.3.3-.3.4v2.4l-7.5-3c-.3-.1-.4 0-.5.3-.1.1 0 .4.3.5l7.7 3.1v5.9l-7.5-3c-.3-.1-.4 0-.5.3-.1.1 0 .4.3.5l7.7 3.1v7.2zm37 6.4-23.4 11.2v-19.5-6.9-2.8l23.4-11.1zm-18.3-12.6c-.1-.1 0-.4.1-.5l12.6-6c.1-.1.4 0 .5.1s0 .4-.1.5l-12.6 6h-.1c-.1.2-.2.1-.4-.1zm0 7c-.1-.1 0-.4.1-.5l12.6-6c.1-.1.4 0 .5.1s0 .4-.1.5l-12.6 6h-.1c-.1.1-.2 0-.4-.1zm0 6.9c-.1-.1 0-.4.1-.5l12.6-6c.1-.1.4 0 .5.1s0 .4-.1.5l-12.6 6h-.1c-.1.2-.2 0-.4-.1z" fill="#fff" stroke="#fff" stroke-miterlimit="10" stroke-width=".5"></path></svg>