<svg enable-background="new 0 0 64 64" height="64" viewBox="0 0 64 64" width="64" xmlns="http://www.w3.org/2000/svg"><path d="m43 19.4c-1.5-1.5-3.1-2.6-5-3.3-2-.8-3.9-1.2-6-1.2s-4.2.4-6 1.2c-1.8.7-3.5 1.9-5 3.3-1.5 1.5-2.6 3.3-3.5 5.4-.8 2.1-1.2 4.5-1.2 7.2s.4 5.2 1.2 7.3c.9 2.1 2 3.9 3.5 5.4s3.2 2.5 5 3.3c1.9.8 3.9 1.2 6 1.2 2 0 4-.4 6-1.2 1.9-.8 3.6-1.9 5-3.3 1.5-1.5 2.7-3.3 3.5-5.4.9-2.1 1.3-4.6 1.3-7.3s-.4-5.1-1.3-7.2c-.8-2.2-1.9-4-3.5-5.4zm-11 20.9c-4.6 0-8.3-3.7-8.3-8.3s3.7-8.3 8.3-8.3 8.3 3.7 8.3 8.3c.1 4.6-3.7 8.3-8.3 8.3z" fill="none"></path><g fill="#25aae1"><path d="m54.9 9c-2.8-2.8-6.2-5-10-6.6-4-1.6-8.2-2.4-12.9-2.4s-9 .8-12.8 2.4-7.2 3.8-10 6.6-5 6.2-6.6 10.1c-1.7 4-2.5 8.2-2.5 12.9s.8 9 2.4 12.9 3.8 7.3 6.6 10.1 6.2 5 10 6.6c4 1.6 8.3 2.4 12.9 2.4s8.9-.8 12.8-2.4 7.2-3.8 10-6.6 5-6.2 6.6-10.1 2.3-8.2 2.3-12.9-.7-8.9-2.3-12.8c-1.5-4-3.7-7.3-6.5-10.2zm-8.4 30.2c-.8 2.1-2 3.9-3.5 5.4s-3.1 2.5-5 3.3c-2 .8-3.9 1.2-6 1.2s-4.2-.4-6-1.2-3.5-1.9-5-3.3c-1.5-1.5-2.6-3.3-3.5-5.4-.8-2.1-1.2-4.6-1.2-7.3s.4-5.1 1.2-7.2c.9-2.1 2-3.9 3.5-5.4s3.2-2.6 5-3.3c1.9-.8 3.9-1.2 6-1.2 2 0 4 .4 6 1.2 1.9.7 3.6 1.9 5 3.3 1.5 1.5 2.7 3.3 3.5 5.4.9 2.1 1.3 4.5 1.3 7.2s-.4 5.2-1.3 7.3z"></path><path d="m32 23.7c-4.6 0-8.3 3.7-8.3 8.3s3.7 8.3 8.3 8.3 8.3-3.7 8.3-8.3c.1-4.6-3.7-8.3-8.3-8.3z"></path></g></svg>