<svg enable-background="new 0 0 80 80" viewBox="0 0 80 80" xmlns="http://www.w3.org/2000/svg"><g clip-rule="evenodd" fill="#fff" fill-rule="evenodd" stroke="#fff"><path d="m68.9 71.3v-10.1c0-2-1.1-3-3-3-2.2 0-4 1.6-4.1 3.6v9.6h-3.7v-10.2c0-2-1.1-3-3-3-2.2 0-4 1.6-4.1 3.6v9.6h-3.6v-15.9h3.3l.3 1.4.2.2.2-.2c.8-1 2.5-1.7 4.1-1.7 2.6 0 4.6 1 5.5 2.7l.9-1c.9-1 2.8-1.7 4.2-1.7 4.1 0 6.3 2.4 6.3 5.7v10.5h-3.5zm-55.9-49.4h-.7v10.9h-3.7v-25.4h8.8c4 0 7.4 2.6 7.4 7.2 0 4.4-3.7 7.2-7.6 7.2l8.1 10.5v.7h-4.1c0-.1-8.2-11.1-8.2-11.1zm4.6-3.6c1.9 0 3.8-1.4 3.8-3.6s-1.9-3.6-3.8-3.6h-5.2v7.3h5.2z" stroke-width=".3264"></path><path d="m7.6 70.5 62.3-62.4 1.9 1.9-62.3 62.4s-1.9-1.9-1.9-1.9z" stroke-width=".9791"></path></g></svg>